<svg className="loader-circle" data-name="Layer 1" xmlns="http://www.w3.org/2000/svg" xmlns:xlink="http://www.w3.org/1999/xlink" viewBox="0 0 100 100"><defs><style>.loader1{fill:#fff;fill-rule:evenodd;}.loader2{fill:url(#linear-gradient);}.loader3{fill:url(#linear-gradient-2);}.loader4{fill:url(#linear-gradient-3);}.loader5{fill:url(#linear-gradient-4);}.loader6{fill:url(#linear-gradient-5);}</style><linearGradient id="linear-gradient" x1="1.22" y1="52.35" x2="5.9" y2="47.67" gradientUnits="userSpaceOnUse"><stop offset="0" stop-color="#fff"/><stop offset="1" stop-color="#fff" stop-opacity="0.75"/></linearGradient><linearGradient id="linear-gradient-2" x1="-1.63" y1="44.85" x2="44.69" y2="-1.47" xlink:href="#linear-gradient"/><linearGradient id="linear-gradient-3" x1="55.15" y1="-1.64" x2="101.47" y2="44.68" gradientUnits="userSpaceOnUse"><stop offset="0" stop-color="#fff" stop-opacity="0.75"/><stop offset="1" stop-color="#fff" stop-opacity="0.5"/></linearGradient><linearGradient id="linear-gradient-4" x1="101.63" y1="55.15" x2="55.31" y2="101.47" gradientUnits="userSpaceOnUse"><stop offset="0" stop-color="#fff" stop-opacity="0.5"/><stop offset="1" stop-color="#fff" stop-opacity="0.25"/></linearGradient><linearGradient id="linear-gradient-5" x1="44.85" y1="101.63" x2="-1.47" y2="55.31" gradientUnits="userSpaceOnUse"><stop offset="0" stop-color="#fff" stop-opacity="0.25"/><stop offset="1" stop-color="#fff" stop-opacity="0"/></linearGradient></defs><path id="sun" className="loader1" d="M69.78,72.46c-8.05-3.2-10.38-13.3-16.12-14.84C58.44,64.27,54.9,70.4,57.34,79c-5.14-7-3.21-16.51-7.69-20.45,1.15,7.6-5.3,12.58-6.15,21.25-1.3-12.31,4.33-17.27,2.14-22.16-2.81,8-10.59,9.77-14.66,16.2,4-10.41,11.31-13.22,11.46-18.77-6.19,5.31-13.11,2.9-20.26,7.76,5.72-7,17.07-7.89,18.47-11.47-11.37.43-12.15-3-21.18-2.05,9.76-4,17.17.36,21.18-2.07-6.59-1.21-10.22-8.66-18-11.33,9.21.71,13.09,7,19.76,7.62C36,38.13,37.81,32.45,31.16,25.36,38,28.88,41.6,40.72,45.64,40.94c-3-8.76.85-11.89-2.14-20.72C49.83,31.16,45.73,35.94,49.65,40c.48-8.34,5.14-8.88,6.89-19.37,1.37,9.44-4,12.47-2.88,20.27,3.51-7.52,8.91-5.74,15-15.24-4.36,11.37-8.8,9.71-11.74,17.8,6.46-5.17,11.62-2.43,20.26-7.75C70.76,43.2,65.87,40.32,58.67,47.2,65.44,44.44,70,49.12,80.53,49c-11.33,2.51-15.4-.8-21.85,2.36,8.76.48,11.69,7.54,19.06,10.76-9.93-1.92-14.63-7.42-20.85-7,7,4.55,7.28,12.77,12.9,17.42"/><g id="ring"><circle className="loader2" cx="3.57" cy="50" r="3.57"/><path className="loader3" d="M50,0V7.14A42.85,42.85,0,0,0,7.14,50H0A50,50,0,0,1,50,0Z"/><path className="loader4" d="M100,50H92.86A42.85,42.85,0,0,0,50,7.14V0A50,50,0,0,1,100,50Z"/><path className="loader5" d="M50,100V92.85A42.85,42.85,0,0,0,92.86,50H100A50,50,0,0,1,50,100Z"/><path className="loader6" d="M0,50H7.14A42.85,42.85,0,0,0,50,92.85V100A50,50,0,0,1,0,50Z"/></g></svg>